<svg xmlns="http://www.w3.org/2000/svg" viewBox="0 0 500 500">
    <defs>
        <linearGradient id="roockyGradient" x1="0%" y1="0%" x2="100%" y2="100%">
            <stop offset="0%" stop-color="#00F2FE" />
            <stop offset="100%" stop-color="#4FACFE" />
        </linearGradient>

        <filter id="glow" x="-20%" y="-20%" width="140%" height="140%">
            <feGaussianBlur stdDeviation="8" result="blur" />
            <feComposite in="SourceGraphic" in2="blur" operator="over" />
        </filter>
    </defs>



    <path d="M 170 180 L 110 240 L 170 300" fill="none" stroke="#2A2A2A" stroke-width="20" stroke-linecap="round" stroke-linejoin="round" />

    <path d="M 330 180 L 390 240 L 330 300" fill="none" stroke="#2A2A2A" stroke-width="20" stroke-linecap="round" stroke-linejoin="round" />

    <path d="M 210 150 h 55 c 35 0, 55 20, 55 55 c 0 25, -15 40, -35 45 l 40 65 h -35 l -35 -60 h -35 v 60 h -30 v -165 z m 30 25 v 50 h 25 c 15 0, 20 -10, 20 -25 c 0 -15, -5 -25, -20 -25 h -25 z" fill="url(#roockyGradient)" filter="url(#glow)" />

    <text x="250" y="420" font-family="'Courier New', Courier, monospace" font-size="45" font-weight="900" fill="#FFFFFF" letter-spacing="12" text-anchor="middle">DEV</text>
</svg>